<svg width="111" height="60" viewBox="0 0 111 60" fill="none" xmlns="http://www.w3.org/2000/svg">
<path d="M31.1272 16.9728C29.1197 14.5804 27.8189 11.6758 27.3708 8.58507C29.6026 10.7914 31.277 13.4975 32.2554 16.4794C32.2817 16.1505 32.3179 15.7557 32.3475 15.315C32.7384 13.1652 33.6285 11.1373 34.9461 9.39423C34.9437 11.5919 34.3299 13.7456 33.1731 15.6143C34.5777 14.5354 37.0216 12.723 37.6532 10.858C38.1111 9.57692 38.3021 8.21572 38.2144 6.8581C38.1267 5.50049 37.7622 4.17516 37.1433 2.96366C34.903 4.32024 33.1556 6.3581 32.1567 8.77914C32.1008 8.914 32.0482 9.05215 32.0021 9.19359C31.8238 8.48007 31.5423 7.79638 31.1667 7.16409C27.8445 1.70715 22.9697 0 22.9697 0C22.9697 0 20.8021 5.17407 23.8611 11.1836C25.1341 13.6901 28.9332 15.7393 31.1272 16.9728Z" fill="#505050"/>
<path d="M86.8835 11.1836H82.5482C81.5267 11.1836 80.547 11.5894 79.8246 12.3118C79.1023 13.0341 78.6965 14.0138 78.6965 15.0354V31.6759H61.8618V15.0913C61.8618 14.0706 61.4564 13.0917 60.7346 12.37C60.0129 11.6483 59.034 11.2428 58.0133 11.2428H47.2573C45.1139 11.2424 42.9913 11.6642 41.0109 12.4843C39.0305 13.3044 37.231 14.5066 35.7153 16.0223C34.1997 17.538 32.9974 19.3374 32.1774 21.3178C31.3573 23.2982 30.9354 25.4208 30.9359 27.5643C30.9359 25.4204 30.5135 23.2975 29.6928 21.3168C28.8722 19.3362 27.6694 17.5366 26.1531 16.0209C24.6368 14.5053 22.8367 13.3032 20.8558 12.4833C18.8748 11.6635 16.7517 11.2419 14.6078 11.2428H3.85176C3.3461 11.2424 2.8453 11.3416 2.37801 11.5348C1.91071 11.728 1.48607 12.0114 1.12836 12.3688C0.770644 12.7262 0.486874 13.1506 0.293264 13.6178C0.0996545 14.0849 -1.84698e-07 14.5856 0 15.0913V56.0924C0 57.1139 0.40581 58.0936 1.12816 58.816C1.8505 59.5383 2.83021 59.9441 3.85176 59.9441H23.5119C24.1688 59.9441 24.7988 59.6832 25.2633 59.2187C25.7278 58.7542 25.9887 58.1242 25.9887 57.4673C25.9972 54.7099 25.121 52.0225 23.4889 49.8L15.8182 39.4716C15.2862 38.7512 14.9644 37.8974 14.8888 37.0051C14.8133 36.1127 14.9868 35.2169 15.3902 34.4174C15.7935 33.6178 16.4109 32.9459 17.1734 32.4764C17.936 32.0069 18.814 31.7583 19.7095 31.7582H19.7358C20.5187 31.7581 21.29 31.9481 21.9833 32.3119C22.6765 32.6758 23.2711 33.2025 23.7158 33.8469L27.3999 39.1821C27.8039 39.7683 28.3443 40.2475 28.9746 40.5786C29.6049 40.9096 30.3061 41.0826 31.0181 41.0826C31.73 41.0826 32.4313 40.9096 33.0616 40.5786C33.6918 40.2475 34.2323 39.7683 34.6363 39.1821L38.2907 33.9192C38.7237 33.2806 39.3003 32.7525 39.9744 32.3771C40.6485 32.0018 41.4012 31.7898 42.1721 31.7582C43.0796 31.7307 43.9765 31.959 44.7604 32.4172C45.5442 32.8754 46.1833 33.5449 46.6047 34.3491C47.026 35.1533 47.2125 36.0599 47.143 36.9652C47.0734 37.8704 46.7506 38.7378 46.2113 39.4683L38.5539 49.8328C36.9157 52.0474 36.0313 54.7292 36.031 57.4838C36.031 58.1407 36.2919 58.7706 36.7564 59.2351C37.2209 59.6996 37.8509 59.9606 38.5078 59.9606H58.0265C58.5322 59.9606 59.0329 59.8609 59.5 59.6673C59.9672 59.4737 60.3915 59.19 60.7489 58.8322C61.1064 58.4745 61.3898 58.0499 61.583 57.5826C61.7762 57.1153 61.8754 56.6145 61.875 56.1088V39.3992H78.7096V56.1483C78.7096 57.1699 79.1154 58.1496 79.8378 58.8719C80.5601 59.5943 81.5398 60.0001 82.5614 60.0001H86.8967C88.749 59.9992 90.5252 59.2627 91.8347 57.9526C93.1442 56.6425 93.8799 54.866 93.8799 53.0136V18.1701C93.8799 17.2518 93.6988 16.3425 93.3471 15.4942C92.9954 14.6459 92.4799 13.8753 91.8301 13.2264C91.1803 12.5775 90.4089 12.0631 89.5602 11.7126C88.7114 11.3621 87.8018 11.1823 86.8835 11.1836ZM33.8666 34.258L32.6101 35.5244C32.3899 35.7448 32.1283 35.9196 31.8405 36.0389C31.5527 36.1582 31.2441 36.2196 30.9326 36.2196C30.621 36.2196 30.3125 36.1582 30.0246 36.0389C29.7368 35.9196 29.4753 35.7448 29.255 35.5244L27.9985 34.2679C25.5809 31.8503 28.5149 28.9162 30.9326 31.3338C33.3568 28.8998 36.2941 31.8338 33.8666 34.258Z" fill="#505050"/>
<path d="M103.139 18.1565C102.117 18.1565 101.138 18.5623 100.415 19.2847C99.6929 20.007 99.2871 20.9867 99.2871 22.0083V49.1746C99.2871 50.1961 99.6929 51.1758 100.415 51.8982C101.138 52.6205 102.117 53.0263 103.139 53.0263C104.99 53.0263 106.766 52.2916 108.076 50.9835C109.385 49.6755 110.123 47.901 110.125 46.0497V25.143C110.125 23.29 109.389 21.513 108.079 20.2028C106.769 18.8926 104.992 18.1565 103.139 18.1565Z" fill="#505050"/>
</svg>
